<?xml version="1.0" encoding="UTF-8"?>
<svg xmlns="http://www.w3.org/2000/svg" xmlns:xlink="http://www.w3.org/1999/xlink" viewBox="0 0 100 100" width="100px" height="100px">
<g id="surface28638912">
<path style=" stroke:none;fill-rule:nonzero;fill:rgb(100%,100%,100%);fill-opacity:1;" d="M 50 4 C 36 4 29.816406 11.035156 29.816406 11.035156 C 28.6875 10.390625 27.398438 10 26 10 C 21.582031 10 18 13.582031 18 18 C 18 21.726562 20.550781 24.835938 24 25.726562 L 24 45.757812 L 16.878906 52.878906 C 15.707031 54.050781 15.707031 55.949219 16.878906 57.121094 C 17.464844 57.707031 18.230469 58 19 58 C 19.769531 58 20.535156 57.707031 21.121094 57.121094 L 23.804688 54.4375 C 23.300781 59.789062 22 62.308594 22 72 C 22 77.058594 24.445312 82.480469 29.078125 86.679688 L 24.878906 90.878906 C 23.707031 92.050781 23.707031 93.949219 24.878906 95.121094 C 25.464844 95.707031 26.230469 96 27 96 C 27.769531 96 28.535156 95.707031 29.121094 95.121094 L 34.0625 90.183594 C 38.332031 92.523438 43.65625 94 50 94 C 56.34375 94 61.671875 92.523438 65.941406 90.183594 L 70.878906 95.121094 C 71.464844 95.707031 72.230469 96 73 96 C 73.769531 96 74.535156 95.707031 75.121094 95.121094 C 76.292969 93.949219 76.292969 92.050781 75.121094 90.878906 L 70.921875 86.679688 C 75.554688 82.480469 78 77.058594 78 72 C 78 62.308594 76.699219 59.792969 76.195312 54.4375 L 78.878906 57.121094 C 79.464844 57.710938 80.230469 58 81 58 C 81.769531 58 82.535156 57.707031 83.121094 57.121094 C 84.292969 55.949219 84.292969 54.050781 83.121094 52.878906 L 76 45.757812 L 76 25.726562 C 79.449219 24.835938 82 21.722656 82 18 C 82 13.582031 78.417969 10 74 10 C 72.601562 10 71.3125 10.390625 70.183594 11.035156 C 70.183594 11.035156 64 4 50 4 Z M 26 16 C 26.597656 16 27.101562 16.285156 27.464844 16.703125 C 26.84375 17.730469 26.332031 18.828125 25.964844 19.992188 C 24.875 19.972656 24 19.09375 24 18 C 24 16.894531 24.894531 16 26 16 Z M 74 16 C 75.105469 16 76 16.894531 76 18 C 76 19.09375 75.125 19.972656 74.035156 19.992188 C 73.667969 18.828125 73.15625 17.730469 72.535156 16.703125 C 72.898438 16.285156 73.402344 16 74 16 Z M 39.003906 18.003906 C 42.871094 18.007812 46 21.136719 45.996094 25.003906 C 45.992188 28.871094 42.859375 32.003906 38.996094 32 C 35.339844 32 32.375 29.179688 32.0625 25.605469 C 32.34375 26.972656 33.550781 28 35 28 C 36.65625 28 38 26.65625 38 25 C 38 23.34375 36.65625 22 35 22 C 33.550781 22 32.34375 23.027344 32.0625 24.394531 C 32.375 20.816406 35.34375 18.003906 39.003906 18.003906 Z M 61 18.003906 C 64.867188 18.007812 68 21.136719 67.996094 25.003906 C 67.992188 28.871094 64.859375 32.003906 60.992188 32 C 57.125 31.996094 53.992188 28.863281 53.996094 24.996094 C 54 21.128906 57.132812 18 61 18.003906 Z M 57 22 C 55.34375 22 54 23.34375 54 25 C 54 26.65625 55.34375 28 57 28 C 58.65625 28 60 26.65625 60 25 C 60 23.34375 58.65625 22 57 22 Z M 50 32 C 52.210938 32 54 32.894531 54 34 C 54 35.105469 52.210938 36 50 36 C 47.789062 36 46 35.105469 46 34 C 46 32.894531 47.789062 32 50 32 Z M 57.011719 36.980469 C 57.621094 37.902344 58 38.949219 58 40 C 58 41 58 44 50 44 C 42 44 42 41 42 40 C 42 38.949219 42.378906 37.910156 42.984375 36.988281 C 44.304688 38.828125 46.851562 40 50 40 C 53.152344 40 55.703125 38.824219 57.011719 36.980469 Z M 46 47.691406 C 47.164062 47.882812 48.480469 48 50 48 C 51.519531 48 52.835938 47.882812 54 47.691406 L 54 50 C 54 51.105469 53.105469 52 52 52 C 50.894531 52 50 51.105469 50 50 C 50 51.105469 49.105469 52 48 52 C 46.894531 52 46 51.105469 46 50 Z M 46 47.691406 "/>
</g>
</svg>
